<?xml version="1.0" standalone="no"?>

<svg version="1.0" xmlns="http://www.w3.org/2000/svg"
 width="147.000000pt" height="72.000000pt" viewBox="0 0 147.000000 72.000000"
 preserveAspectRatio="xMidYMid meet">

<g transform="translate(0.000000,72.000000) scale(0.100000,-0.100000)"
fill="#000000" stroke="none">
<path d="M190 565 c0 -37 4 -65 10 -65 6 0 10 11 10 25 0 33 15 32 45 -2 29
-35 43 -25 14 10 -11 15 -16 27 -10 27 16 0 24 40 11 55 -7 8 -28 15 -46 15
l-34 0 0 -65z m65 25 c0 -8 -10 -16 -22 -18 -18 -3 -23 2 -23 18 0 16 5 21 23
18 12 -2 22 -10 22 -18z"/>
<path d="M310 565 l0 -65 40 0 c22 0 40 5 40 10 0 6 -13 10 -30 10 -23 0 -30
4 -30 20 0 16 7 20 30 20 17 0 30 5 30 10 0 6 -13 10 -30 10 -20 0 -30 5 -30
15 0 10 10 15 30 15 17 0 30 5 30 10 0 6 -18 10 -40 10 l-40 0 0 -65z"/>
<path d="M411 616 c-18 -22 -6 -45 29 -58 39 -13 33 -33 -9 -31 -39 1 -37 -21
3 -25 61 -7 77 55 18 72 -41 11 -36 32 7 29 41 -1 36 21 -6 25 -18 2 -35 -3
-42 -12z"/>
<path d="M500 620 c0 -5 9 -10 20 -10 18 0 20 -7 20 -55 0 -30 5 -55 10 -55 6
0 10 25 10 55 0 48 2 55 20 55 11 0 20 5 20 10 0 6 -22 10 -50 10 -27 0 -50
-4 -50 -10z"/>
<path d="M613 565 c-12 -36 -18 -65 -13 -65 4 0 10 7 14 15 8 21 53 19 65 -2
5 -10 12 -15 15 -12 10 9 -35 129 -48 129 -7 0 -21 -29 -33 -65z m47 -2 c0 -7
-7 -13 -15 -13 -16 0 -19 9 -9 35 5 13 8 14 15 3 5 -7 9 -19 9 -25z"/>
<path d="M710 577 c0 -57 12 -77 45 -77 34 0 45 20 43 79 l-2 56 -3 -47 c-7
-87 -63 -95 -63 -8 0 27 -4 50 -10 50 -5 0 -10 -24 -10 -53z"/>
<path d="M830 565 c0 -37 4 -65 10 -65 6 0 10 11 10 25 0 14 4 25 9 25 5 0 18
-11 29 -25 22 -27 62 -34 62 -10 0 21 50 19 66 -2 11 -14 13 -15 13 -3 -1 27
-35 114 -46 117 -6 2 -19 -20 -28 -49 -22 -68 -28 -73 -50 -48 -14 16 -16 23
-7 32 17 17 15 55 -4 62 -9 3 -27 6 -40 6 -23 0 -24 -3 -24 -65z m58 28 c-5
-26 -38 -29 -38 -4 0 15 6 21 21 21 14 0 19 -5 17 -17z m108 -40 c-2 -3 -11
-3 -19 -1 -11 2 -12 9 -5 28 l10 25 9 -24 c5 -13 7 -26 5 -28z"/>
<path d="M1050 565 c0 -37 4 -65 10 -65 6 0 10 21 10 48 l1 47 25 -47 c13 -27
29 -48 34 -48 6 0 10 29 10 65 0 37 -4 65 -10 65 -5 0 -10 -19 -11 -42 l0 -43
-22 43 c-31 63 -47 55 -47 -23z"/>
<path d="M1150 620 c0 -5 11 -10 25 -10 24 0 25 -3 25 -55 0 -30 5 -55 10 -55
6 0 10 25 10 55 0 48 2 55 20 55 11 0 20 5 20 10 0 6 -25 10 -55 10 -30 0 -55
-4 -55 -10z"/>
<path d="M704 416 c-3 -8 -17 -17 -31 -21 -24 -6 -24 -7 -9 -24 9 -10 16 -26
16 -37 0 -16 7 -19 40 -19 33 0 40 3 40 19 0 11 7 27 16 37 15 17 15 18 -9 24
-14 4 -28 13 -31 21 -7 18 -25 18 -32 0z"/>
<path d="M565 408 c-4 -10 -13 -18 -20 -18 -10 0 -11 -5 -2 -24 7 -13 20 -23
32 -23 12 0 25 10 32 23 7 16 8 24 1 24 -6 0 -17 8 -24 18 -12 16 -13 16 -19
0z"/>
<path d="M855 408 c-4 -10 -13 -18 -20 -18 -10 0 -11 -5 -2 -24 7 -13 20 -23
32 -23 12 0 25 10 32 23 7 16 8 24 1 24 -6 0 -17 8 -24 18 -12 16 -13 16 -19
0z"/>
<path d="M263 303 c33 -4 37 -7 37 -33 0 -26 -4 -29 -37 -33 -34 -3 -32 -4 11
-5 34 -1 55 3 67 14 16 14 30 15 106 7 85 -10 123 -4 123 17 0 21 -38 27 -122
17 -75 -8 -89 -7 -103 7 -12 11 -32 15 -68 14 -43 -1 -46 -2 -14 -5z"/>
<path d="M1095 294 c-14 -14 -28 -15 -103 -7 -84 10 -122 4 -122 -17 0 -21 38
-27 123 -17 76 8 90 7 106 -7 12 -11 33 -15 67 -14 43 1 45 2 12 5 -34 4 -38
7 -38 33 0 26 4 29 38 33 31 3 28 4 -15 5 -36 1 -56 -3 -68 -14z"/>
<path d="M500 115 l0 -65 33 0 c41 0 67 26 67 67 0 38 -27 63 -68 63 l-32 0 0
-65z m69 36 c7 -5 14 -21 14 -36 0 -29 -16 -45 -45 -45 -15 0 -18 9 -18 45 0
47 15 57 49 36z"/>
<path d="M636 164 c-21 -20 -21 -78 0 -98 36 -37 94 -6 94 51 0 53 -59 83 -94
47z m58 -10 c22 -8 22 -70 0 -78 -29 -11 -44 -6 -55 18 -20 43 11 77 55 60z"/>
<path d="M750 116 c0 -37 4 -66 10 -66 6 0 10 11 10 25 0 32 15 32 36 0 18
-28 64 -35 64 -10 0 21 50 19 66 -2 11 -14 13 -15 13 -3 -1 27 -35 114 -46
117 -6 2 -19 -20 -28 -49 -22 -67 -28 -73 -49 -49 -15 16 -15 22 -4 40 18 29
0 55 -41 59 l-31 3 0 -65z m55 24 c0 -8 -8 -16 -17 -18 -13 -2 -18 3 -18 18 0
15 5 20 18 18 9 -2 17 -10 17 -18z m111 -37 c-2 -3 -11 -3 -19 -1 -11 2 -12 9
-5 28 l10 25 9 -24 c5 -13 7 -26 5 -28z"/>
<path d="M970 115 l0 -65 33 0 c41 0 67 26 67 67 0 38 -27 63 -68 63 l-32 0 0
-65z m68 33 c27 -27 7 -78 -30 -78 -15 0 -18 8 -18 45 0 37 3 45 18 45 10 0
23 -5 30 -12z"/>
<path d="M1099 164 c-7 -9 -13 -31 -13 -49 0 -42 19 -65 55 -65 31 0 59 31 59
65 0 54 -69 87 -101 49z m71 -18 c28 -35 -11 -93 -47 -70 -36 22 -23 84 17 84
10 0 23 -7 30 -14z"/>
</g>
</svg>
